# xmcd CD database file
#
# Track frame offsets:
#	150
#	16425
#	31612
#	46937
#	65812
#	82437
#	98025
#	112537
#	127400
#	145050
#	167187
#
# Disc length: 2461 seconds
#
# Revision: 3
# Processed by: cddbd v1.5.2PL0 Copyright (c) Steve Scherf et al.
# Submitted via: CDex 1.79
#
DISCID=94099b0b
DTITLE=Ian Tyson - I Outgrew The Wagon
DYEAR=1990
DGENRE=Country
TTITLE0=Cowboys Don't Cry
TTITLE1=Casey Tibbs
TTITLE2=I Outgrew The Wagon
TTITLE3=Arms Of Corey Jo
TTITLE4=Adelita Rose
TTITLE5=Irving Berlin (Is 100 Years Old Today)
TTITLE6=Since The Rain
TTITLE7=The Wind In The Wire
TTITLE8=Four Strong Winds
TTITLE9=The Banks Of The Musselshell
TTITLE10=The Steeldust Line
EXTD=YEAR: 1990
EXTT0=
EXTT1=
EXTT2=
EXTT3=
EXTT4=
EXTT5=
EXTT6=
EXTT7=
EXTT8=
EXTT9=
EXTT10=
PLAYORDER=
